<svg width="24" height="24" viewBox="0 0 24 24" fill="none" xmlns="http://www.w3.org/2000/svg">
<path d="M11.9999 3.60039C11.9999 3.28213 12.1263 2.97691 12.3514 2.75187C12.5764 2.52682 12.8816 2.40039 13.1999 2.40039H13.7999C14.2619 2.40039 14.6843 2.57439 15.0023 2.86119C15.3325 2.56371 15.7615 2.39949 16.2059 2.40039H17.3939C17.8559 2.40039 18.2783 2.57439 18.5975 2.86119C18.9274 2.56399 19.3559 2.39979 19.7999 2.40039H20.3999C20.7182 2.40039 21.0234 2.52682 21.2484 2.75187C21.4735 2.97691 21.5999 3.28213 21.5999 3.60039V6.60039C21.6002 7.28161 21.3687 7.94266 20.9434 8.47481C20.5182 9.00696 19.9244 9.37853 19.2599 9.52839C19.6007 14.38 21.2999 17.4304 21.8843 18.3484C22.0763 18.6508 22.1999 19.012 22.1999 19.4008V19.8004C22.1999 20.0368 22.1533 20.2708 22.0629 20.4892C21.9724 20.7076 21.8398 20.906 21.6727 21.0732C21.5055 21.2403 21.3071 21.3729 21.0887 21.4634C20.8703 21.5538 20.6363 21.6004 20.3999 21.6004H13.8287C14.091 21.2449 14.2695 20.8347 14.3507 20.4004H20.3999C20.559 20.4004 20.7116 20.3372 20.8242 20.2247C20.9367 20.1121 20.9999 19.9595 20.9999 19.8004V19.4008C20.9968 19.2553 20.9523 19.1138 20.8715 18.9928C20.1839 17.9128 18.2855 14.464 18.0287 9.02799C18.025 8.94751 18.0375 8.86711 18.0656 8.79157C18.0936 8.71604 18.1366 8.64693 18.1919 8.58836C18.2472 8.52979 18.3138 8.48296 18.3876 8.45067C18.4614 8.41837 18.5409 8.40128 18.6215 8.40039C19.0951 8.39471 19.5474 8.20256 19.8804 7.86561C20.2133 7.52866 20.3999 7.07407 20.3999 6.60039V3.60039H19.7999C19.6408 3.60039 19.4882 3.66361 19.3756 3.77613C19.2631 3.88865 19.1999 4.04126 19.1999 4.20039V5.40039C19.2004 5.55952 19.1376 5.71233 19.0254 5.82519C18.9133 5.93805 18.7608 6.00172 18.6017 6.00219C18.4426 6.00267 18.2898 5.93992 18.1769 5.82773C18.0641 5.71555 18.0004 5.56312 17.9999 5.40399V5.40039L17.9939 4.19799C17.9933 4.03928 17.9298 3.88728 17.8173 3.77528C17.7049 3.66328 17.5526 3.60039 17.3939 3.60039H16.2059C16.0472 3.60039 15.8949 3.66328 15.7825 3.77528C15.67 3.88728 15.6065 4.03928 15.6059 4.19799L15.5999 5.40279C15.5994 5.56192 15.5358 5.71435 15.4229 5.82653C15.31 5.93872 15.1572 6.00147 14.9981 6.00099C14.839 6.00052 14.6865 5.93684 14.5744 5.82399C14.4622 5.71113 14.3994 5.55832 14.3999 5.39919V4.19919C14.3999 4.04006 14.3367 3.88745 14.2242 3.77493C14.1116 3.66241 13.959 3.59919 13.7999 3.59919H13.1999V6.59919C13.1996 7.07307 13.3861 7.52797 13.719 7.86518C14.052 8.20239 14.5045 8.39471 14.9783 8.40039C15.0589 8.40128 15.1384 8.41837 15.2122 8.45067C15.286 8.48296 15.3526 8.52979 15.4079 8.58836C15.4632 8.64693 15.5062 8.71604 15.5342 8.79157C15.5623 8.86711 15.5748 8.94751 15.5711 9.02799C15.3815 13.036 14.2991 15.9628 13.4687 17.6572C13.3912 17.578 13.3099 17.5028 13.2251 17.4316C12.9847 17.2295 12.7637 17.0053 12.5651 16.762C13.2707 15.2284 14.1107 12.784 14.3399 9.52719C13.6761 9.37638 13.0831 9.00471 12.658 8.47303C12.233 7.94134 12.0009 7.28112 11.9999 6.60039V3.60039ZM5.3999 9.60039C5.3999 9.22011 5.49027 8.84527 5.66356 8.50676C5.83685 8.16825 6.08809 7.87577 6.3966 7.65341C6.7051 7.43106 7.06203 7.28519 7.43796 7.22784C7.8139 7.17049 8.19808 7.2033 8.55885 7.32355C8.91962 7.44381 9.24665 7.64808 9.51299 7.91952C9.77932 8.19096 9.97735 8.52181 10.0907 8.88479C10.2041 9.24778 10.2296 9.63251 10.1652 10.0073C10.1007 10.3821 9.94807 10.7362 9.7199 11.0404C9.65305 11.1295 9.61233 11.2355 9.60233 11.3465C9.59232 11.4575 9.61341 11.5691 9.66325 11.6687C9.71308 11.7684 9.78968 11.8522 9.88446 11.9108C9.97925 11.9694 10.0885 12.0004 10.1999 12.0004H10.7999C10.959 12.0004 11.1116 12.0636 11.2242 12.1761C11.3367 12.2887 11.3999 12.4413 11.3999 12.6004C11.3999 12.7595 11.3367 12.9121 11.2242 13.0247C11.1116 13.1372 10.959 13.2004 10.7999 13.2004H9.4715C9.38667 13.2005 9.30282 13.2185 9.22547 13.2534C9.14813 13.2882 9.07906 13.3391 9.02281 13.4026C8.96657 13.4661 8.92443 13.5408 8.89917 13.6218C8.87392 13.7028 8.86612 13.7882 8.8763 13.8724C9.2387 16.8364 10.8071 18.538 11.6843 19.2724C11.8943 19.4476 11.9999 19.6684 11.9999 19.8592C11.9999 20.0027 11.9429 20.1404 11.8414 20.2419C11.7399 20.3434 11.6022 20.4004 11.4587 20.4004H4.1399C3.99658 20.4001 3.85923 20.3429 3.75799 20.2415C3.65676 20.14 3.5999 20.0025 3.5999 19.8592C3.5999 19.6672 3.7055 19.4476 3.9143 19.2724C4.7927 18.538 6.3623 16.8364 6.7235 13.8724C6.73368 13.7882 6.72589 13.7028 6.70063 13.6218C6.67538 13.5408 6.63324 13.4661 6.57699 13.4026C6.52074 13.3391 6.45167 13.2882 6.37433 13.2534C6.29699 13.2185 6.21313 13.2005 6.1283 13.2004H4.7999C4.64077 13.2004 4.48816 13.1372 4.37564 13.0247C4.26312 12.9121 4.1999 12.7595 4.1999 12.6004C4.1999 12.4413 4.26312 12.2887 4.37564 12.1761C4.48816 12.0636 4.64077 12.0004 4.7999 12.0004H5.3999C5.51133 12.0004 5.62056 11.9694 5.71534 11.9108C5.81013 11.8522 5.88673 11.7684 5.93656 11.6687C5.98639 11.5691 6.00748 11.4575 5.99748 11.3465C5.98747 11.2355 5.94676 11.1295 5.8799 11.0404C5.56747 10.6254 5.39894 10.1198 5.3999 9.60039ZM7.7999 6.00039C7.22022 6.00024 6.64908 6.14006 6.13503 6.40798C5.62098 6.67591 5.17923 7.064 4.84734 7.53927C4.51546 8.01454 4.30325 8.56292 4.22876 9.1378C4.15427 9.71267 4.21971 10.297 4.4195 10.8412C3.98542 10.9352 3.60142 11.1864 3.34137 11.5465C3.08131 11.9065 2.96357 12.35 3.01077 12.7917C3.05797 13.2333 3.26679 13.6419 3.59706 13.9389C3.92734 14.2359 4.35575 14.4002 4.7999 14.4004H5.4239C4.9775 16.558 3.8003 17.8036 3.1439 18.352C2.7287 18.7 2.3999 19.2352 2.3999 19.8592C2.3999 20.8204 3.1799 21.6004 4.1411 21.6004H11.4599C12.4199 21.6004 13.1999 20.8204 13.1999 19.8592C13.1999 19.2352 12.8711 18.7 12.4559 18.352C11.7995 17.8036 10.6223 16.558 10.1759 14.4004H10.7999C11.2441 14.4002 11.6725 14.2359 12.0027 13.9389C12.333 13.6419 12.5418 13.2333 12.589 12.7917C12.6362 12.35 12.5185 11.9065 12.2584 11.5465C11.9984 11.1864 11.6144 10.9352 11.1803 10.8412C11.3801 10.297 11.4455 9.71267 11.371 9.1378C11.2966 8.56292 11.0843 8.01454 10.7525 7.53927C10.4206 7.064 9.97883 6.67591 9.46478 6.40798C8.95073 6.14006 8.37958 6.00024 7.7999 6.00039Z" fill="#14213D"/>
</svg>
