<svg width="24" height="25" viewBox="0 0 24 25" fill="none" xmlns="http://www.w3.org/2000/svg">
<path fill-rule="evenodd" clip-rule="evenodd" d="M12 1.2793C12.1989 1.2793 12.3897 1.36015 12.5303 1.50408C12.671 1.648 12.75 1.8432 12.75 2.04674V13.2749L14.43 11.2683C14.4941 11.1917 14.5723 11.1288 14.6601 11.0831C14.748 11.0375 14.8438 11.0099 14.942 11.0022C15.0403 10.9944 15.139 11.0064 15.2327 11.0377C15.3264 11.069 15.4131 11.1188 15.488 11.1844C15.5629 11.25 15.6244 11.33 15.669 11.4199C15.7136 11.5098 15.7405 11.6078 15.7481 11.7083C15.7557 11.8089 15.7439 11.9099 15.7134 12.0058C15.6828 12.1017 15.6341 12.1904 15.57 12.267L12.57 15.8484C12.4996 15.9327 12.4122 16.0003 12.3138 16.0467C12.2154 16.0931 12.1083 16.1171 12 16.1171C11.8917 16.1171 11.7846 16.0931 11.6862 16.0467C11.5878 16.0003 11.5004 15.9327 11.43 15.8484L8.43 12.267C8.36592 12.1904 8.3172 12.1017 8.28664 12.0058C8.25608 11.9099 8.24427 11.8089 8.25188 11.7083C8.2595 11.6078 8.28639 11.5098 8.33102 11.4199C8.37565 11.33 8.43715 11.25 8.512 11.1844C8.58685 11.1188 8.6736 11.069 8.76728 11.0377C8.86096 11.0064 8.95974 10.9944 9.05798 11.0022C9.15623 11.0099 9.25201 11.0375 9.33986 11.0831C9.42771 11.1288 9.50591 11.1917 9.57 11.2683L11.25 13.2739V2.04674C11.25 1.8432 11.329 1.648 11.4697 1.50408C11.6103 1.36015 11.8011 1.2793 12 1.2793ZM6.996 8.44413C7.19491 8.44305 7.3861 8.52286 7.5275 8.66602C7.6689 8.80917 7.74894 9.00394 7.75 9.20748C7.75106 9.41102 7.67306 9.60665 7.53316 9.75135C7.39326 9.89604 7.20291 9.97793 7.004 9.97902C5.911 9.98516 5.136 10.0138 4.547 10.1243C3.981 10.2318 3.652 10.4026 3.409 10.6513C3.132 10.9347 2.952 11.3328 2.853 12.0839C2.752 12.8564 2.75 13.8807 2.75 15.3491V16.3723C2.75 17.8417 2.752 18.866 2.853 19.6386C2.952 20.3896 3.133 20.7866 3.409 21.0711C3.686 21.3535 4.074 21.5377 4.809 21.639C5.563 21.7434 6.565 21.7444 8 21.7444H16C17.435 21.7444 18.436 21.7434 19.192 21.639C19.926 21.5377 20.314 21.3535 20.591 21.0701C20.868 20.7866 21.048 20.3896 21.147 19.6386C21.248 18.866 21.25 17.8417 21.25 16.3723V15.3491C21.25 13.8807 21.248 12.8564 21.147 12.0828C21.048 11.3328 20.867 10.9347 20.591 10.6513C20.347 10.4026 20.019 10.2318 19.453 10.1243C18.864 10.0138 18.089 9.98516 16.996 9.97902C16.8975 9.97848 16.8001 9.9581 16.7093 9.91903C16.6185 9.87997 16.5361 9.82299 16.4668 9.75135C16.3976 9.6797 16.3428 9.5948 16.3056 9.50148C16.2684 9.40817 16.2495 9.30826 16.25 9.20748C16.2505 9.1067 16.2704 9.00701 16.3086 8.91411C16.3468 8.8212 16.4025 8.7369 16.4725 8.66602C16.5425 8.59514 16.6255 8.53906 16.7167 8.50099C16.8079 8.46292 16.9055 8.4436 17.004 8.44413C18.086 8.45027 18.987 8.47688 19.724 8.61502C20.482 8.75827 21.127 9.02944 21.652 9.56665C22.254 10.1816 22.512 10.9583 22.634 11.8792C22.75 12.7653 22.75 13.894 22.75 15.2928V16.4286C22.75 17.8284 22.75 18.956 22.634 19.8432C22.512 20.7641 22.254 21.5398 21.652 22.1558C21.05 22.7718 20.292 23.0358 19.392 23.1606C18.525 23.2793 17.422 23.2793 16.055 23.2793H7.945C6.578 23.2793 5.475 23.2793 4.608 23.1606C3.708 23.0368 2.95 22.7718 2.348 22.1558C1.746 21.5398 1.488 20.7641 1.367 19.8432C1.25 18.956 1.25 17.8274 1.25 16.4286V15.2928C1.25 13.894 1.25 12.7653 1.367 11.8782C1.487 10.9573 1.747 10.1816 2.348 9.56562C2.873 9.02944 3.518 8.75725 4.276 8.61502C5.013 8.47688 5.914 8.45027 6.996 8.44413Z" fill="#14213D"/>
</svg>
