<svg width="124" height="124" viewBox="0 0 124 124" fill="none" xmlns="http://www.w3.org/2000/svg">
<path d="M113.667 28.4165H46.5C40.8167 28.4165 36.1667 33.0665 36.1667 38.7498V85.2498C36.1667 87.9904 37.2554 90.6187 39.1932 92.5566C41.1311 94.4945 43.7594 95.5832 46.5 95.5832H113.667C119.402 95.5832 124 90.9848 124 85.2498V38.7498C124 36.0093 122.911 33.3809 120.973 31.4431C119.036 29.5052 116.407 28.4165 113.667 28.4165ZM113.667 85.2498H46.5V47.3782L80.0833 64.5832L113.667 47.3782V85.2498ZM80.0833 55.8515L46.5 38.7498H113.667L80.0833 55.8515ZM25.8333 85.2498C25.8333 86.1282 25.9883 86.9548 26.0917 87.8332H5.16667C2.31467 87.8332 0 85.5082 0 82.6665C0 79.8248 2.31467 77.4998 5.16667 77.4998H25.8333V85.2498ZM15.5 36.1665H26.0917C25.9883 37.0448 25.8333 37.8715 25.8333 38.7498V46.4998H15.5C12.6583 46.4998 10.3333 44.1748 10.3333 41.3332C10.3333 38.4915 12.6583 36.1665 15.5 36.1665ZM5.16667 61.9998C5.16667 59.1582 7.49167 56.8332 10.3333 56.8332H25.8333V67.1665H10.3333C7.49167 67.1665 5.16667 64.8415 5.16667 61.9998Z" fill="#14213D"/>
</svg>
