<svg width="1200" height="1200" viewBox="0 0 1200 1200" fill="none" xmlns="http://www.w3.org/2000/svg">
<rect width="1200" height="1200" rx="128" fill="#14213D"/>
<circle cx="421.424" cy="224.974" r="55.974" fill="#FF9F1C"/>
<circle cx="1099.51" cy="975.027" r="55.974" fill="#FF9F1C"/>
<path d="M254.663 1031C213.701 1031 177.128 1022.21 144.943 1004.62C113.343 986.439 88.4734 961.521 70.3329 929.859C52.7776 897.611 44 860.966 44 819.923C44 806.438 48.3888 795.59 57.1664 787.382C65.9441 778.587 76.7698 774.189 89.6437 774.189C103.103 774.189 113.928 778.587 122.121 787.382C130.899 795.59 135.287 806.438 135.287 819.923C135.287 845.135 140.261 867.415 150.209 886.764C160.743 906.113 174.787 921.357 192.342 932.497C210.483 943.051 231.256 948.328 254.663 948.328C278.071 948.328 298.844 943.051 316.984 932.497C335.125 921.357 349.169 906.113 359.117 886.764C369.65 867.415 374.917 845.135 374.917 819.923V381.057C374.917 367.571 379.013 356.724 387.205 348.516C395.983 339.721 406.808 335.323 419.683 335.323C433.141 335.323 444.26 339.721 453.038 348.516C461.815 356.724 466.204 367.571 466.204 381.057V819.923C466.204 860.966 457.134 897.611 438.993 929.859C420.853 961.521 395.983 986.439 364.384 1004.62C332.784 1022.21 296.21 1031 254.663 1031Z" fill="white"/>
<path d="M942.418 1031C928.975 1031 917.672 1026.72 908.506 1018.17C899.952 1009 895.675 997.693 895.675 984.246V758.725C895.675 723.888 889.259 695.469 876.428 673.467C863.596 651.465 846.182 635.269 824.185 624.879C802.8 613.878 778.053 608.378 749.946 608.378C724.283 608.378 701.065 613.572 680.289 623.962C659.514 634.352 643.017 648.409 630.797 666.133C618.576 683.246 612.466 703.108 612.466 725.722H554.724C554.724 687.218 563.89 652.993 582.22 623.046C601.162 592.487 626.825 568.346 659.209 550.622C691.593 532.898 727.949 524.036 768.277 524.036C810.437 524.036 848.015 533.204 881.01 551.539C914.617 569.263 940.89 595.543 959.832 630.38C979.385 665.216 989.161 707.998 989.161 758.725V984.246C989.161 997.693 984.579 1009 975.413 1018.17C966.859 1026.72 955.861 1031 942.418 1031ZM565.723 1031C552.28 1031 540.976 1026.72 531.811 1018.17C523.257 1009 518.979 997.693 518.979 984.246V575.374C518.979 561.317 523.257 550.011 531.811 541.454C540.976 532.898 552.28 528.62 565.723 528.62C579.776 528.62 591.08 532.898 599.634 541.454C608.189 550.011 612.466 561.317 612.466 575.374V984.246C612.466 997.693 608.189 1009 599.634 1018.17C591.08 1026.72 579.776 1031 565.723 1031Z" fill="white"/>
</svg>
