<svg width="293" height="195" viewBox="0 0 293 195" fill="none" xmlns="http://www.w3.org/2000/svg">
<rect width="292.5" height="195" rx="97.5" fill="#14213D"/>
<circle cx="118.525" cy="39.5312" r="8.53125" fill="#FF9F1C"/>
<circle cx="221.875" cy="153.85" r="8.53125" fill="#FF9F1C"/>
<path d="M93.1081 162.381C86.8648 162.381 81.2906 161.04 76.3851 158.359C71.5689 155.589 67.7784 151.791 65.0135 146.965C62.3378 142.05 61 136.465 61 130.21C61 128.154 61.6689 126.501 63.0068 125.25C64.3446 123.909 65.9946 123.239 67.9568 123.239C70.0081 123.239 71.6581 123.909 72.9068 125.25C74.2446 126.501 74.9135 128.154 74.9135 130.21C74.9135 134.052 75.6716 137.448 77.1878 140.397C78.7933 143.346 80.9338 145.67 83.6095 147.368C86.3744 148.976 89.5405 149.78 93.1081 149.78C96.6757 149.78 99.8418 148.976 102.607 147.368C105.372 145.67 107.512 143.346 109.028 140.397C110.634 137.448 111.436 134.052 111.436 130.21V63.3201C111.436 61.2647 112.061 59.6114 113.309 58.3603C114.647 57.0198 116.297 56.3496 118.259 56.3496C120.311 56.3496 122.005 57.0198 123.343 58.3603C124.681 59.6114 125.35 61.2647 125.35 63.3201V130.21C125.35 136.465 123.968 142.05 121.203 146.965C118.438 151.791 114.647 155.589 109.831 158.359C105.015 161.04 99.4405 162.381 93.1081 162.381Z" fill="white"/>
<path d="M197.932 162.381C195.883 162.381 194.16 161.729 192.763 160.425C191.459 159.028 190.807 157.304 190.807 155.255V120.882C190.807 115.573 189.83 111.241 187.874 107.888C185.918 104.534 183.264 102.066 179.911 100.482C176.652 98.8055 172.88 97.9671 168.596 97.9671C164.685 97.9671 161.146 98.7589 157.98 100.342C154.813 101.926 152.299 104.069 150.436 106.77C148.574 109.378 147.642 112.405 147.642 115.852H138.842C138.842 109.984 140.239 104.767 143.032 100.203C145.919 95.5452 149.831 91.8658 154.767 89.1644C159.702 86.463 165.244 85.1123 171.39 85.1123C177.816 85.1123 183.543 86.5096 188.572 89.3041C193.694 92.0055 197.699 96.011 200.586 101.321C203.566 106.63 205.056 113.151 205.056 120.882V155.255C205.056 157.304 204.358 159.028 202.961 160.425C201.657 161.729 199.981 162.381 197.932 162.381ZM140.518 162.381C138.469 162.381 136.746 161.729 135.349 160.425C134.045 159.028 133.394 157.304 133.394 155.255V92.937C133.394 90.7945 134.045 89.0712 135.349 87.7671C136.746 86.463 138.469 85.8109 140.518 85.8109C142.66 85.8109 144.383 86.463 145.687 87.7671C146.99 89.0712 147.642 90.7945 147.642 92.937V155.255C147.642 157.304 146.99 159.028 145.687 160.425C144.383 161.729 142.66 162.381 140.518 162.381Z" fill="white"/>
</svg>
