<svg width="123" height="36" viewBox="0 0 123 36" fill="none" xmlns="http://www.w3.org/2000/svg">
<path d="M111.405 36C107.168 36 103.816 34.9407 101.35 32.8221C98.8832 30.7035 97.65 27.747 97.65 23.9526C97.65 20.2213 98.7409 17.2648 100.923 15.083C103.105 12.9012 106.219 11.8103 110.267 11.8103C112.923 11.8103 115.184 12.3162 117.049 13.3281C118.946 14.3399 120.369 15.7312 121.318 17.502C122.267 19.2411 122.741 21.2332 122.741 23.4782V26.2292H103.342C103.753 29.6126 106.693 31.3043 112.164 31.3043C113.618 31.3043 115.105 31.1779 116.622 30.9249C118.14 30.6719 119.468 30.3241 120.607 29.8814V34.4822C119.531 34.9249 118.14 35.2885 116.433 35.5731C114.757 35.8577 113.081 36 111.405 36ZM117.097 22.1502C117.033 20.3478 116.385 18.9565 115.152 17.9763C113.95 16.996 112.29 16.5059 110.172 16.5059C108.085 16.5059 106.441 17.0118 105.239 18.0237C104.037 19.0356 103.405 20.4111 103.342 22.1502H117.097Z" fill="#FF8788"/>
<path d="M88.0281 36C85.3719 36 83.032 35.5257 81.0083 34.5771C79.0162 33.6284 77.4668 32.253 76.3601 30.4506C75.2534 28.6482 74.7 26.4822 74.7 23.9526C74.7 21.4229 75.2534 19.2569 76.3601 17.4545C77.4984 15.6205 79.0636 14.2292 81.0557 13.2806C83.0794 12.3004 85.4352 11.8103 88.1229 11.8103C91.6644 11.8103 94.4945 12.5059 96.613 13.8972V18.6877C94.5577 17.2332 91.9332 16.5059 88.7395 16.5059C86.3047 16.5059 84.3601 17.1225 82.9055 18.3557C81.4826 19.5573 80.7711 21.4229 80.7711 23.9526C80.7711 26.4506 81.4826 28.3004 82.9055 29.502C84.3601 30.7035 86.2731 31.3043 88.6447 31.3043C91.8383 31.3043 94.5893 30.5454 96.8976 29.0277V33.7707C95.7593 34.5296 94.4628 35.083 93.0083 35.4308C91.5854 35.8103 89.9253 36 88.0281 36Z" fill="#FF8788"/>
<path d="M50.4 12.5217H56.1866V15.6047C57.2617 14.3083 58.5423 13.3597 60.0285 12.7589C61.5146 12.1265 63.0798 11.8103 64.7241 11.8103C67.7913 11.8103 70.0838 12.6482 71.6016 14.3241C73.1194 15.9684 73.8783 18.166 73.8783 20.917V35.2885H67.902V21.4862C67.902 18.166 66.3526 16.5059 63.2538 16.5059C61.8941 16.5059 60.6134 16.8379 59.4119 17.502C58.2103 18.1344 57.1984 19.0988 56.3763 20.3952V35.2885H50.4V12.5217Z" fill="#FF8788"/>
<path d="M35.8464 36C33.1271 36 30.8978 35.2885 29.1587 33.8656C27.4196 32.4111 26.55 30.4664 26.55 28.0316C26.55 25.502 27.3721 23.5257 29.0164 22.1028C30.6607 20.6798 32.969 19.9684 35.9413 19.9684C38.8188 19.9684 41.301 20.5533 43.388 21.7233V21.1067C43.388 19.4941 42.882 18.3241 41.8702 17.5968C40.8899 16.8696 39.2931 16.5059 37.0797 16.5059C35.6883 16.5059 34.3129 16.6482 32.9532 16.9328C31.5935 17.1858 30.3919 17.5494 29.3484 18.0237V13.3281C30.297 12.8854 31.5619 12.5217 33.1429 12.2371C34.7555 11.9526 36.3049 11.8103 37.7911 11.8103C41.7437 11.8103 44.6686 12.664 46.5658 14.3715C48.4631 16.0474 49.4117 18.3873 49.4117 21.3913V35.2885H43.7674V33.0593C42.7872 34.0079 41.6646 34.7352 40.3998 35.2411C39.1666 35.747 37.6488 36 35.8464 36ZM37.3168 31.6364C38.6449 31.6364 39.8465 31.3834 40.9215 30.8775C41.9966 30.3399 42.8188 29.6126 43.388 28.6956V26.1818C41.6488 24.9486 39.6567 24.332 37.4117 24.332C34.218 24.332 32.6212 25.5652 32.6212 28.0316C32.6212 29.2332 33.0164 30.1344 33.8069 30.7352C34.6291 31.336 35.799 31.6364 37.3168 31.6364Z" fill="#FF8788"/>
<path d="M3.36759 17.0751H0V12.5217H3.36759V8.58498C3.36759 5.83399 4.25296 3.71542 6.02371 2.22925C7.82609 0.743084 10.087 0 12.8063 0C14.3241 0 15.6522 0.221345 16.7905 0.664032V5.50198C15.9368 5.12253 15.004 4.93281 13.9921 4.93281C12.5375 4.93281 11.3992 5.28063 10.5771 5.97628C9.75494 6.67194 9.34387 7.68379 9.34387 9.01186V12.5217H19.3992V1.75494H25.3755V35.2885H19.3992V17.0751H9.34387V35.2885H3.36759V17.0751Z" fill="#FF8788"/>
</svg>
