<svg width="24" height="24" viewBox="0 0 24 24" fill="none" xmlns="http://www.w3.org/2000/svg">
<path d="M17.3999 2.40039C17.2407 2.40039 17.0881 2.4636 16.9756 2.57613C16.8631 2.68865 16.7999 2.84126 16.7999 3.00039C16.7999 3.15952 16.8631 3.31213 16.9756 3.42465C17.0881 3.53718 17.2407 3.60039 17.3999 3.60039H19.5515L13.7999 9.35199L10.6247 6.17559C10.5689 6.11971 10.5027 6.07538 10.4298 6.04514C10.3569 6.01489 10.2788 5.99932 10.1999 5.99932C10.121 5.99932 10.0428 6.01489 9.96992 6.04514C9.89702 6.07538 9.83081 6.11971 9.77508 6.17559L3.77508 12.1756C3.66241 12.2883 3.59912 12.4411 3.59912 12.6004C3.59912 12.7597 3.66241 12.9125 3.77508 13.0252C3.88774 13.1379 4.04055 13.2011 4.19988 13.2011C4.35921 13.2011 4.51202 13.1379 4.62468 13.0252L10.1999 7.44879L13.3751 10.6252C13.4308 10.6811 13.497 10.7254 13.5699 10.7556C13.6428 10.7859 13.721 10.8015 13.7999 10.8015C13.8788 10.8015 13.9569 10.7859 14.0298 10.7556C14.1027 10.7254 14.1689 10.6811 14.2247 10.6252L20.3999 4.44879V6.60039C20.3999 6.75952 20.4631 6.91213 20.5756 7.02465C20.6881 7.13718 20.8407 7.20039 20.9999 7.20039C21.159 7.20039 21.3116 7.13718 21.4241 7.02465C21.5367 6.91213 21.5999 6.75952 21.5999 6.60039V3.00039C21.5999 2.84126 21.5367 2.68865 21.4241 2.57613C21.3116 2.4636 21.159 2.40039 20.9999 2.40039H17.3999ZM18.5999 10.8004C18.4407 10.8004 18.2881 10.8636 18.1756 10.9761C18.0631 11.0886 17.9999 11.2413 17.9999 11.4004V21.0004C17.9999 21.1595 18.0631 21.3121 18.1756 21.4247C18.2881 21.5372 18.4407 21.6004 18.5999 21.6004C18.759 21.6004 18.9116 21.5372 19.0241 21.4247C19.1367 21.3121 19.1999 21.1595 19.1999 21.0004V11.4004C19.1999 11.2413 19.1367 11.0886 19.0241 10.9761C18.9116 10.8636 18.759 10.8004 18.5999 10.8004ZM8.99988 13.2004C8.84075 13.2004 8.68814 13.2636 8.57561 13.3761C8.46309 13.4886 8.39988 13.6413 8.39988 13.8004V21.0004C8.39988 21.1595 8.46309 21.3121 8.57561 21.4247C8.68814 21.5372 8.84075 21.6004 8.99988 21.6004C9.15901 21.6004 9.31162 21.5372 9.42414 21.4247C9.53666 21.3121 9.59988 21.1595 9.59988 21.0004V13.8004C9.59988 13.6413 9.53666 13.4886 9.42414 13.3761C9.31162 13.2636 9.15901 13.2004 8.99988 13.2004ZM13.1999 16.2004C13.1999 16.0413 13.2631 15.8886 13.3756 15.7761C13.4881 15.6636 13.6407 15.6004 13.7999 15.6004C13.959 15.6004 14.1116 15.6636 14.2241 15.7761C14.3367 15.8886 14.3999 16.0413 14.3999 16.2004V21.0004C14.3999 21.1595 14.3367 21.3121 14.2241 21.4247C14.1116 21.5372 13.959 21.6004 13.7999 21.6004C13.6407 21.6004 13.4881 21.5372 13.3756 21.4247C13.2631 21.3121 13.1999 21.1595 13.1999 21.0004V16.2004ZM3.59988 17.4004C3.59988 17.2413 3.66309 17.0886 3.77562 16.9761C3.88814 16.8636 4.04075 16.8004 4.19988 16.8004C4.35901 16.8004 4.51162 16.8636 4.62414 16.9761C4.73666 17.0886 4.79988 17.2413 4.79988 17.4004V21.0004C4.79988 21.1595 4.73666 21.3121 4.62414 21.4247C4.51162 21.5372 4.35901 21.6004 4.19988 21.6004C4.04075 21.6004 3.88814 21.5372 3.77562 21.4247C3.66309 21.3121 3.59988 21.1595 3.59988 21.0004V17.4004Z" fill="#14213D"/>
</svg>
