<svg width="150" height="40" viewBox="0 0 150 40" fill="none" xmlns="http://www.w3.org/2000/svg">
<path d="M51.1668 20V33.0909H49.5815V20H51.1668Z" fill="#14213D"/>
<path d="M55.1756 27.0398V32.946H53.667V23.1278H55.1244V24.6619H55.2523C55.4824 24.1633 55.8318 23.7628 56.3006 23.4602C56.7693 23.1534 57.3744 23 58.1159 23C58.7807 23 59.3623 23.1364 59.8609 23.4091C60.3595 23.6776 60.7473 24.0866 61.0243 24.6363C61.3013 25.1818 61.4398 25.8721 61.4398 26.7074V32.946H59.9312V26.8096C59.9312 26.0383 59.731 25.4375 59.3304 25.0071C58.9298 24.5724 58.3801 24.3551 57.6812 24.3551C57.1997 24.3551 56.7693 24.4595 56.39 24.6683C56.015 24.8771 55.7189 25.1818 55.5016 25.5824C55.2842 25.9829 55.1756 26.4687 55.1756 27.0398Z" fill="#14213D"/>
<path d="M69.0279 23.3523V24.6307H63.9399V23.3523H69.0279ZM65.4228 21H66.9313V30.358C66.9313 30.7841 66.9931 31.1036 67.1167 31.3167C67.2446 31.5255 67.4065 31.6661 67.6025 31.7386C67.8028 31.8068 68.0137 31.841 68.2353 31.841C68.4015 31.841 68.5379 31.8323 68.6444 31.8153C68.7509 31.794 68.8362 31.7769 68.9001 31.7642L69.2069 33.1194C69.1046 33.1577 68.9619 33.1961 68.7786 33.2344C68.5954 33.277 68.3632 33.2983 68.0819 33.2983C67.6558 33.2983 67.2382 33.2067 66.8291 33.0235C66.4242 32.8402 66.0876 32.5611 65.8191 32.1861C65.5549 31.8111 65.4228 31.338 65.4228 30.767V21Z" fill="#14213D"/>
<path d="M76.2837 33.1505C75.3377 33.1505 74.5216 32.9417 73.8355 32.5241C73.1537 32.1022 72.6274 31.5142 72.2567 30.7599C71.8902 30.0014 71.707 29.1193 71.707 28.1136C71.707 27.1079 71.8902 26.2216 72.2567 25.4545C72.6274 24.6832 73.1431 24.0824 73.8036 23.652C74.4683 23.2173 75.2439 23 76.1303 23C76.6416 23 77.1466 23.0852 77.6452 23.2557C78.1438 23.4261 78.5976 23.7031 79.0067 24.0866C79.4158 24.4659 79.7418 24.9687 79.9847 25.5951C80.2276 26.2216 80.349 26.9929 80.349 27.9091V28.5483H72.7808V27.2443H78.8149C78.8149 26.6903 78.7041 26.196 78.4825 25.7613C78.2652 25.3267 77.9541 24.9836 77.5493 24.7322C77.1487 24.4808 76.6757 24.3551 76.1303 24.3551C75.5294 24.3551 75.0095 24.5042 74.5706 24.8025C74.136 25.0966 73.8014 25.4801 73.5671 25.9531C73.3327 26.4261 73.2155 26.9332 73.2155 27.4744V28.3437C73.2155 29.0852 73.3433 29.7138 73.599 30.2294C73.859 30.7407 74.219 31.1307 74.6793 31.3991C75.1395 31.6633 75.6743 31.7954 76.2837 31.7954C76.68 31.7954 77.0379 31.74 77.3575 31.6292C77.6814 31.5142 77.9605 31.3437 78.1949 31.1179C78.4293 30.8878 78.6104 30.6022 78.7382 30.2613L80.1956 30.6704C80.0422 31.1648 79.7844 31.5994 79.4222 31.9744C79.06 32.3451 78.6125 32.6349 78.0798 32.8437C77.5472 33.0483 76.9485 33.1505 76.2837 33.1505Z" fill="#14213D"/>
<path d="M82.8491 32.9716V23.1534H84.3065V24.6364H84.4088C84.5878 24.1506 84.9116 23.7564 85.3804 23.4538C85.8491 23.1513 86.3776 23 86.9656 23C87.0764 23 87.2149 23.0021 87.3811 23.0064C87.5473 23.0106 87.673 23.017 87.7582 23.0256V24.5597C87.7071 24.5469 87.5899 24.5277 87.4067 24.5021C87.2277 24.4723 87.0381 24.4574 86.8378 24.4574C86.3605 24.4574 85.9344 24.5575 85.5594 24.7578C85.1886 24.9538 84.8946 25.2266 84.6773 25.576C84.4642 25.9212 84.3577 26.3153 84.3577 26.7585V32.9716H82.8491Z" fill="#14213D"/>
<path d="M97.6475 25.3267L96.2924 25.7102C96.2071 25.4844 96.0814 25.2649 95.9152 25.0518C95.7533 24.8345 95.5317 24.6555 95.2505 24.5149C94.9692 24.3743 94.6091 24.304 94.1702 24.304C93.5694 24.304 93.0686 24.4424 92.6681 24.7194C92.2718 24.9922 92.0736 25.3395 92.0736 25.7613C92.0736 26.1363 92.21 26.4325 92.4827 26.6498C92.7554 26.8672 93.1816 27.0483 93.7611 27.1932L95.2185 27.5511C96.0963 27.7642 96.7505 28.0902 97.1809 28.5291C97.6113 28.9638 97.8265 29.5241 97.8265 30.2102C97.8265 30.7727 97.6645 31.2755 97.3407 31.7187C97.0211 32.1619 96.5736 32.5113 95.9983 32.767C95.423 33.0227 94.754 33.1505 93.9912 33.1505C92.9898 33.1505 92.161 32.9332 91.5047 32.4986C90.8485 32.0639 90.433 31.429 90.2583 30.5937L91.6901 30.2358C91.8265 30.7642 92.0843 31.1605 92.4635 31.4247C92.8471 31.6889 93.3478 31.821 93.9657 31.821C94.6688 31.821 95.227 31.6719 95.6404 31.3736C96.058 31.071 96.2668 30.7088 96.2668 30.2869C96.2668 29.946 96.1475 29.6605 95.9088 29.4304C95.6702 29.196 95.3037 29.0213 94.8094 28.9062L93.173 28.5227C92.2739 28.3096 91.6134 27.9794 91.1915 27.5319C90.7739 27.0802 90.5651 26.5156 90.5651 25.838C90.5651 25.2841 90.7206 24.794 91.0317 24.3679C91.3471 23.9418 91.7753 23.6072 92.3165 23.3643C92.862 23.1214 93.4799 23 94.1702 23C95.1418 23 95.9046 23.2131 96.4586 23.6392C97.0168 24.0653 97.4131 24.6278 97.6475 25.3267Z" fill="#14213D"/>
<path d="M144.992 25.3267L143.637 25.7102C143.552 25.4844 143.426 25.2649 143.26 25.0518C143.098 24.8345 142.876 24.6555 142.595 24.5149C142.314 24.3743 141.954 24.304 141.515 24.304C140.914 24.304 140.413 24.4424 140.013 24.7194C139.616 24.9922 139.418 25.3395 139.418 25.7613C139.418 26.1363 139.555 26.4325 139.827 26.6498C140.1 26.8672 140.526 27.0483 141.106 27.1932L142.563 27.5511C143.441 27.7642 144.095 28.0902 144.525 28.5291C144.956 28.9638 145.171 29.5241 145.171 30.2102C145.171 30.7727 145.009 31.2755 144.685 31.7187C144.366 32.1619 143.918 32.5113 143.343 32.767C142.768 33.0227 142.099 33.1505 141.336 33.1505C140.334 33.1505 139.506 32.9332 138.849 32.4986C138.193 32.0639 137.778 31.429 137.603 30.5937L139.035 30.2358C139.171 30.7642 139.429 31.1605 139.808 31.4247C140.192 31.6889 140.692 31.821 141.31 31.821C142.013 31.821 142.572 31.6719 142.985 31.3736C143.403 31.071 143.611 30.7088 143.611 30.2869C143.611 29.946 143.492 29.6605 143.253 29.4304C143.015 29.196 142.648 29.0213 142.154 28.9062L140.518 28.5227C139.618 28.3096 138.958 27.9794 138.536 27.5319C138.118 27.0802 137.91 26.5156 137.91 25.838C137.91 25.2841 138.065 24.794 138.376 24.3679C138.692 23.9418 139.12 23.6072 139.661 23.3643C140.207 23.1214 140.824 23 141.515 23C142.486 23 143.249 23.2131 143.803 23.6392C144.361 24.0653 144.758 24.6278 144.992 25.3267Z" fill="#14213D"/>
<path d="M148.822 33.3012C148.506 33.3012 148.236 33.1882 148.01 32.9624C147.784 32.7365 147.671 32.4659 147.671 32.1506C147.671 31.8353 147.784 31.5647 148.01 31.3388C148.236 31.113 148.506 31 148.822 31C149.137 31 149.408 31.113 149.633 31.3388C149.859 31.5647 149.972 31.8353 149.972 32.1506C149.972 32.3594 149.919 32.5512 149.812 32.7259C149.71 32.9006 149.572 33.0412 149.397 33.1478C149.226 33.25 149.035 33.3012 148.822 33.3012Z" fill="#14213D"/>
<path d="M105.415 23.3523V24.6307H100.327V23.3523H105.415ZM101.81 21H103.318V30.358C103.318 30.7841 103.38 31.1036 103.503 31.3167C103.631 31.5255 103.793 31.6661 103.989 31.7386C104.19 31.8068 104.4 31.841 104.622 31.841C104.788 31.841 104.925 31.8323 105.031 31.8153C105.138 31.794 105.223 31.7769 105.287 31.7642L105.594 33.1194C105.491 33.1577 105.349 33.1961 105.165 33.2344C104.982 33.277 104.75 33.2983 104.469 33.2983C104.043 33.2983 103.625 33.2067 103.216 33.0235C102.811 32.8402 102.474 32.5611 102.206 32.1861C101.942 31.8111 101.81 31.338 101.81 30.767V21Z" fill="#14213D"/>
<path d="M112.67 33.1505C111.724 33.1505 110.908 32.9417 110.222 32.5241C109.54 32.1022 109.014 31.5142 108.643 30.7599C108.277 30.0014 108.094 29.1193 108.094 28.1136C108.094 27.1079 108.277 26.2216 108.643 25.4545C109.014 24.6832 109.53 24.0824 110.19 23.652C110.855 23.2173 111.631 23 112.517 23C113.028 23 113.533 23.0852 114.032 23.2557C114.531 23.4261 114.984 23.7031 115.393 24.0866C115.803 24.4659 116.129 24.9687 116.371 25.5951C116.614 26.2216 116.736 26.9929 116.736 27.9091V28.5483H109.168V27.2443H115.202C115.202 26.6903 115.091 26.196 114.869 25.7613C114.652 25.3267 114.341 24.9836 113.936 24.7322C113.535 24.4808 113.062 24.3551 112.517 24.3551C111.916 24.3551 111.396 24.5042 110.957 24.8025C110.523 25.0966 110.188 25.4801 109.954 25.9531C109.719 26.4261 109.602 26.9332 109.602 27.4744V28.3437C109.602 29.0852 109.73 29.7138 109.986 30.2294C110.246 30.7407 110.606 31.1307 111.066 31.3991C111.526 31.6633 112.061 31.7954 112.67 31.7954C113.067 31.7954 113.425 31.74 113.744 31.6292C114.068 31.5142 114.347 31.3437 114.582 31.1179C114.816 30.8878 114.997 30.6022 115.125 30.2613L116.582 30.6704C116.429 31.1648 116.171 31.5994 115.809 31.9744C115.447 32.3451 114.999 32.6349 114.467 32.8437C113.934 33.0483 113.335 33.1505 112.67 33.1505Z" fill="#14213D"/>
<path d="M120.744 20V33.0909H119.236V20H120.744Z" fill="#14213D"/>
<path d="M124.753 20V33.0909H123.245V20H124.753Z" fill="#14213D"/>
<path d="M130.603 33.1761C129.981 33.1761 129.416 33.0589 128.909 32.8246C128.402 32.5859 127.999 32.2429 127.701 31.7954C127.403 31.3437 127.253 30.7983 127.253 30.1591C127.253 29.5966 127.364 29.1406 127.586 28.7912C127.807 28.4375 128.104 28.1605 128.474 27.9602C128.845 27.7599 129.254 27.6108 129.702 27.5128C130.153 27.4105 130.607 27.3295 131.063 27.2699C131.66 27.1932 132.143 27.1356 132.514 27.0973C132.889 27.0547 133.162 26.9844 133.332 26.8863C133.507 26.7883 133.594 26.6179 133.594 26.375V26.3238C133.594 25.6932 133.422 25.2031 133.077 24.8537C132.736 24.5042 132.218 24.3295 131.523 24.3295C130.803 24.3295 130.239 24.4872 129.829 24.8025C129.42 25.1179 129.133 25.4545 128.966 25.8125L127.535 25.3011C127.79 24.7045 128.131 24.24 128.557 23.9077C128.988 23.571 129.457 23.3366 129.964 23.2045C130.475 23.0682 130.978 23 131.472 23C131.788 23 132.15 23.0384 132.559 23.1151C132.972 23.1875 133.371 23.3388 133.754 23.5689C134.142 23.799 134.464 24.1463 134.719 24.6108C134.975 25.0753 135.103 25.6974 135.103 26.4772V32.946H133.594V31.6165H133.518C133.415 31.8295 133.245 32.0575 133.006 32.3004C132.768 32.5433 132.45 32.75 132.054 32.9204C131.658 33.0909 131.174 33.1761 130.603 33.1761ZM130.833 31.821C131.43 31.821 131.932 31.7038 132.341 31.4694C132.755 31.2351 133.066 30.9325 133.275 30.5618C133.488 30.191 133.594 29.8011 133.594 29.392V28.0113C133.53 28.088 133.39 28.1584 133.172 28.2223C132.959 28.2819 132.712 28.3352 132.431 28.3821C132.154 28.4247 131.883 28.463 131.619 28.4971C131.359 28.527 131.148 28.5525 130.986 28.5738C130.594 28.625 130.228 28.7081 129.887 28.8231C129.55 28.9339 129.278 29.1022 129.069 29.3281C128.864 29.5497 128.762 29.8522 128.762 30.2358C128.762 30.7599 128.956 31.1562 129.344 31.4247C129.736 31.6889 130.232 31.821 130.833 31.821Z" fill="#14213D"/>
<path fill-rule="evenodd" clip-rule="evenodd" d="M40.2356 33.7936C39.4268 35.572 38.2844 37.1625 36.8834 38.4863C35.1949 40.0819 32.5994 39.2383 31.5335 37.1741V37.1741C30.4677 35.1099 31.4747 32.5679 32.4968 30.4817C32.5245 30.4251 32.5514 30.3681 32.5775 30.3107C33.1898 28.9644 33.3312 27.4513 32.979 26.0149C32.6268 24.5785 31.8014 23.3024 30.6358 22.3922C29.4702 21.4819 28.0321 20.9904 26.5532 20.9967C25.0743 21.0031 23.6405 21.507 22.4828 22.4273C21.325 23.3475 20.5107 24.6307 20.1708 26.07C19.831 27.5094 19.9854 29.0213 20.6093 30.3622C20.6359 30.4194 20.6633 30.4762 20.6915 30.5325C21.7315 32.6098 22.7604 35.143 21.7124 37.2164V37.2164C20.6643 39.2897 18.0762 40.1555 16.3739 38.5746C14.9616 37.2629 13.8056 35.6823 12.9815 33.9109V33.9109C12.7007 33.3075 11.9557 33.0518 11.3635 33.3556C11.0829 33.4996 10.7969 33.6351 10.506 33.7619C7.86923 34.9105 4.98067 35.2679 2.18354 34.8277C0.395722 34.5464 -0.435764 32.6046 0.226389 30.9203V30.9203C0.888542 29.236 2.81925 28.4797 4.6289 28.4554C5.74072 28.4404 6.84935 28.206 7.88853 27.7533C9.38956 27.0994 10.6558 26.0293 11.5486 24.6867C11.9319 24.1101 12.1474 23.4447 12.3687 22.7887C12.3854 22.739 12.4025 22.6895 12.4197 22.64C12.648 21.9862 12.8866 21.3285 12.9381 20.6379C13.0391 19.2812 12.8119 17.9072 12.2586 16.6371C11.8059 15.5979 11.1537 14.6712 10.3497 13.9031C9.04112 12.653 8.14234 10.7843 8.80449 9.10001V9.10001C9.46665 7.41567 11.3979 6.55999 12.8986 7.57149C15.2467 9.15405 17.1185 11.3828 18.2672 14.0196V14.0196C18.4571 14.4555 18.9895 14.6382 19.4071 14.4108C21.5774 13.2287 24.0189 12.5946 26.517 12.5839C29.8848 12.5694 33.1595 13.6887 35.8139 15.7616C38.4682 17.8345 40.3478 20.7403 41.1498 24.0113C41.9519 27.2822 41.6299 30.7279 40.2356 33.7936Z" fill="#14213D"/>
<path d="M6 0C8.20914 0 10 1.79086 10 4C10 6.20914 8.20914 8 6 8C3.79086 8 2 6.20914 2 4C2 1.79086 3.79086 0 6 0Z" fill="#14213D"/>
</svg>
