<svg width="372" height="96" viewBox="0 0 372 96" fill="none" xmlns="http://www.w3.org/2000/svg">
<path d="M318.022 25.504H331.27V37.024H318.406V76H303.43V23.2C303.43 17.312 305.158 12.64 308.614 9.184C312.134 5.728 317.062 4 323.398 4C325.638 4 327.75 4.256 329.734 4.768C331.782 5.216 333.478 5.888 334.822 6.784L330.886 17.632C329.158 16.416 327.142 15.808 324.838 15.808C320.294 15.808 318.022 18.304 318.022 23.296V25.504Z" fill="#14213D"/>
<path d="M278.006 76.768C272.566 76.768 267.67 75.648 263.318 73.408C259.03 71.104 255.67 67.936 253.238 63.904C250.806 59.872 249.59 55.296 249.59 50.176C249.59 45.056 250.806 40.48 253.238 36.448C255.67 32.416 259.03 29.28 263.318 27.04C267.67 24.736 272.566 23.584 278.006 23.584C283.446 23.584 288.31 24.736 292.598 27.04C296.886 29.28 300.246 32.416 302.678 36.448C305.11 40.48 306.326 45.056 306.326 50.176C306.326 55.296 305.11 59.872 302.678 63.904C300.246 67.936 296.886 71.104 292.598 73.408C288.31 75.648 283.446 76.768 278.006 76.768ZM278.006 64.48C281.846 64.48 284.982 63.2 287.414 60.64C289.91 58.016 291.158 54.528 291.158 50.176C291.158 45.824 289.91 42.368 287.414 39.808C284.982 37.184 281.846 35.872 278.006 35.872C274.166 35.872 270.998 37.184 268.502 39.808C266.006 42.368 264.758 45.824 264.758 50.176C264.758 54.528 266.006 58.016 268.502 60.64C270.998 63.2 274.166 64.48 278.006 64.48Z" fill="#14213D"/>
<path d="M304.02 50.5C304.02 64.2237 292.464 75.5 278.02 75.5C263.576 75.5 252.02 64.2237 252.02 50.5C252.02 36.7763 263.576 25.5 278.02 25.5C292.464 25.5 304.02 36.7763 304.02 50.5Z" fill="#E3FFF8" stroke="#14213D" stroke-width="5"/>
<path d="M227.104 7.64844C235.104 7.64844 241.344 10.1764 245.824 15.2324C250.304 20.2244 252.544 27.3604 252.544 36.6404V76.0004H236.992V37.1204C236.992 31.7444 235.712 27.7124 233.152 25.0244C230.656 22.2724 227.168 20.8964 222.688 20.8964C217.952 20.8964 214.144 22.3684 211.264 25.3124C208.448 28.1924 207.04 32.4804 207.04 38.1764V76.0004H191.488V8.80044H206.56V16.9604C208.864 13.8884 211.744 11.5844 215.2 10.0484C218.656 8.44844 222.624 7.64844 227.104 7.64844Z" fill="#14213D"/>
<path d="M371.846 24.352V76H357.542V70.048C353.83 74.528 348.454 76.768 341.414 76.768C336.55 76.768 332.134 75.68 328.166 73.504C324.262 71.328 321.19 68.224 318.95 64.192C316.71 60.16 315.59 55.488 315.59 50.176C315.59 44.864 316.71 40.192 318.95 36.16C321.19 32.128 324.262 29.024 328.166 26.848C332.134 24.672 336.55 23.584 341.414 23.584C348.006 23.584 353.158 25.664 356.87 29.824V24.352H371.846ZM344.006 64.48C347.782 64.48 350.918 63.2 353.414 60.64C355.91 58.016 357.158 54.528 357.158 50.176C357.158 45.824 355.91 42.368 353.414 39.808C350.918 37.184 347.782 35.872 344.006 35.872C340.166 35.872 336.998 37.184 334.502 39.808C332.006 42.368 330.758 45.824 330.758 50.176C330.758 54.528 332.006 58.016 334.502 60.64C336.998 63.2 340.166 64.48 344.006 64.48Z" fill="#14213D"/>
<path d="M18.528 77.376C14.688 77.376 11.136 76.544 7.872 74.88C4.672 73.216 2.048 70.848 0 67.776L4.032 62.976C5.888 65.664 8.032 67.712 10.464 69.12C12.896 70.528 15.552 71.232 18.432 71.232C26.816 71.232 31.008 66.304 31.008 56.448V6.144H6.432V0H38.016V56.16C38.016 63.2 36.352 68.48 33.024 72C29.76 75.584 24.928 77.376 18.528 77.376Z" fill="#14213D"/>
<path d="M90.5124 35.5904C92.1124 32.1984 94.4804 29.6384 97.6164 27.9104C100.816 26.1824 104.752 25.3184 109.424 25.3184V31.9424L107.792 31.8464C102.48 31.8464 98.3204 33.4784 95.3124 36.7424C92.3044 40.0064 90.8004 44.5824 90.8004 50.4704V76.1984H83.9844V25.7024H90.5124V35.5904Z" fill="#14213D"/>
<path d="M113.512 35.5904C115.112 32.1984 117.48 29.6384 120.616 27.9104C123.816 26.1824 127.752 25.3184 132.424 25.3184V31.9424L130.792 31.8464C125.48 31.8464 121.32 33.4784 118.312 36.7424C115.304 40.0064 113.8 44.5824 113.8 50.4704V76.1984H106.984V25.7024H113.512V35.5904Z" fill="#14213D"/>
<path d="M175.488 25.7031V70.0551C175.488 78.6311 173.536 84.9671 169.632 89.0631C165.728 93.2231 159.84 95.3031 151.968 95.3031C147.552 95.3031 143.36 94.5991 139.392 93.1911C135.488 91.8471 132.32 89.9591 129.888 87.5271L133.344 82.3431C135.52 84.5191 138.208 86.2151 141.408 87.4311C144.608 88.6471 148.032 89.2551 151.68 89.2551C157.504 89.2551 161.792 87.7511 164.544 84.7431C167.296 81.7991 168.672 77.1911 168.672 70.9191V65.0631C166.88 68.0071 164.416 70.2791 161.28 71.8791C158.208 73.4791 154.72 74.2791 150.816 74.2791C144.224 74.2791 139.008 72.4551 135.168 68.8071C131.392 65.0951 129.504 59.6871 129.504 52.5831V25.7031H136.32V51.9111C136.32 57.2231 137.632 61.2551 140.256 64.0071C142.88 66.7591 146.624 68.1351 151.488 68.1351C156.8 68.1351 160.992 66.5351 164.064 63.3351C167.136 60.0711 168.672 55.5591 168.672 49.7991V25.7031H175.488Z" fill="#14213D"/>
<path d="M68.5922 69.4144C71.6213 68.6027 74.2624 67.3319 76.5154 65.6018C78.8136 63.7933 80.5775 61.598 81.8071 59.0158L86.6592 62.2874C85.1912 65.4636 83.0322 68.1624 80.182 70.3837C77.3318 72.6051 73.9594 74.2376 70.0648 75.2811C65.0574 76.6229 60.3248 76.7646 55.867 75.7063C51.3927 74.5862 47.5684 72.4305 44.3943 69.2393C41.2202 66.0481 38.9954 62.0724 37.72 57.3123C36.4445 52.5522 36.3216 48.0134 37.3512 43.6958C38.4426 39.3616 40.5304 35.655 43.6146 32.5758C46.6987 29.4967 50.559 27.3359 55.1954 26.0936C59.5228 24.9341 63.6824 24.8796 67.6744 25.9302C71.7281 26.9643 75.2471 28.9698 78.2313 31.9469C81.2774 34.9074 83.4668 38.6275 84.7996 43.1072L46.8279 61.6302C49.1244 65.2553 52.1864 67.7809 56.0139 69.2068C59.8866 70.5544 64.0794 70.6236 68.5922 69.4144ZM56.7111 31.7501C53.311 32.6611 50.4663 34.2847 48.1769 36.6208C45.9328 38.8786 44.419 41.6363 43.6355 44.8941C42.8972 48.0736 43.0167 51.4869 43.994 55.1343C44.2425 56.0616 44.4556 56.7333 44.6334 57.1495L77.2469 41.2549C75.4118 37.3736 72.6318 34.5405 68.907 32.7558C65.1656 30.9092 61.1003 30.574 56.7111 31.7501Z" fill="#14213D"/>
<path d="M77.6898 41.2458C76.5836 38.9913 75.0614 36.9682 73.2101 35.2921C71.359 33.6161 69.215 32.3199 66.9007 31.4774C64.5864 30.6349 62.1471 30.2628 59.722 30.3823C57.2969 30.5018 54.9335 31.1104 52.7668 32.1735C50.6 33.2367 48.6725 34.7335 47.0941 36.5784C45.5156 38.4234 44.3173 40.5805 43.5674 42.9265C42.8175 45.2724 42.5308 47.7613 42.7237 50.251C42.9166 52.7408 43.5852 55.1827 44.6915 57.4372L61.1906 49.3415L77.6898 41.2458Z" fill="#FBCFE5"/>
</svg>
