<svg width="124" height="124" viewBox="0 0 124 124" fill="none" xmlns="http://www.w3.org/2000/svg">
<rect opacity="0.25" x="1" y="1" width="122" height="122" rx="31" stroke="#FF9F1C" stroke-width="2"/>
<g clip-path="url(#clip0_205_1369)">
<path d="M35.429 44.2813C40.3207 44.2813 44.2862 40.3166 44.2862 35.4258C44.2862 30.5351 40.3207 26.5703 35.429 26.5703C30.5373 26.5703 26.5718 30.5351 26.5718 35.4258C26.5718 40.3166 30.5373 44.2813 35.429 44.2813Z" fill="#FF9F1C"/>
<path d="M42.8085 50.1963H28.0465C27.2317 50.1963 26.5703 50.8575 26.5703 51.6722V95.9497C26.5703 96.7644 27.2317 97.4256 28.0465 97.4256H42.8085C43.6234 97.4256 44.2847 96.7644 44.2847 95.9497V51.6722C44.2847 50.8575 43.6234 50.1963 42.8085 50.1963Z" fill="#FF9F1C"/>
<path d="M86.7933 47.7414C80.4851 45.5807 72.5945 47.4787 67.8626 50.8822C67.7002 50.2475 67.1217 49.7752 66.4339 49.7752H51.6742C50.8595 49.7752 50.1982 50.4365 50.1982 51.2512V95.5287C50.1982 96.3434 50.8595 97.0046 51.6742 97.0046H66.4339C67.2486 97.0046 67.9098 96.3434 67.9098 95.5287V63.7079C70.295 61.6534 73.3679 60.9981 75.883 62.0667C78.3213 63.0969 79.7176 65.6118 79.7176 68.9622V95.5287C79.7176 96.3434 80.3788 97.0046 81.1935 97.0046H95.9532C96.7679 97.0046 97.4291 96.3434 97.4291 95.5287V65.9897C97.2609 53.8606 91.5548 49.3708 86.7933 47.7414Z" fill="#FF9F1C"/>
</g>
<defs>
<clipPath id="clip0_205_1369">
<rect width="70.8571" height="70.8554" fill="white" transform="translate(26.5718 26.5703)"/>
</clipPath>
</defs>
</svg>
