<svg width="28" height="22" viewBox="0 0 28 22" fill="none" xmlns="http://www.w3.org/2000/svg">
<path d="M15.172 8.12335C15.0228 8.00157 14.9416 7.84049 14.9454 7.67406C14.9493 7.50763 15.0379 7.34883 15.1927 7.23113C15.3475 7.11343 15.5563 7.04601 15.7752 7.04307C15.994 7.04013 16.2058 7.10191 16.3659 7.21539L20.8714 10.6417C21.0296 10.7621 21.1184 10.9254 21.1184 11.0956C21.1184 11.2659 21.0296 11.4292 20.8714 11.5496L16.3659 14.9759C16.2886 15.039 16.1953 15.0896 16.0917 15.1248C15.9881 15.1599 15.8762 15.1787 15.7628 15.1803C15.6494 15.1818 15.5367 15.1659 15.4315 15.1336C15.3263 15.1013 15.2308 15.0532 15.1506 14.9922C15.0704 14.9312 15.0071 14.8585 14.9646 14.7785C14.9221 14.6985 14.9013 14.6129 14.9033 14.5266C14.9053 14.4404 14.9301 14.3553 14.9763 14.2765C15.0224 14.1977 15.089 14.1267 15.172 14.0679L18.2357 11.7381H7.32133C7.09728 11.7381 6.88241 11.6704 6.72399 11.5499C6.56556 11.4294 6.47656 11.266 6.47656 11.0956C6.47656 10.9253 6.56556 10.7619 6.72399 10.6414C6.88241 10.5209 7.09728 10.4532 7.32133 10.4532H18.2357L15.172 8.12335Z" fill="#14213D"/>
</svg>
