<svg width="87" height="25" viewBox="0 0 87 25" fill="none" xmlns="http://www.w3.org/2000/svg">
<path d="M35.873 9.10352C38.2334 9.10352 39.7906 10.0438 39.7906 11.8915V12.0571H37.7418V11.8754C37.7418 10.8523 36.9061 10.5396 35.873 10.5396H35.5948C34.5287 10.5396 33.8079 10.8196 33.8079 11.5613C33.8079 12.3031 34.4968 12.5027 36.2998 12.7334C38.9224 13.0953 39.9056 13.8215 39.9056 15.1905V15.3067C39.9056 16.9066 38.4304 17.7816 35.9227 17.7816H35.6437C33.1527 17.7816 31.6279 16.9066 31.6279 14.9765V14.845H33.6602V15.0097C33.6602 15.9661 34.4142 16.3294 35.6438 16.3294H35.9229C37.267 16.3294 37.8569 15.9993 37.8569 15.339C37.8569 14.6143 37.1847 14.3658 35.267 14.1185C33.0053 13.8385 31.743 13.2613 31.743 11.6937V11.5784C31.743 10.0278 33.2837 9.10352 35.5951 9.10352H35.873Z" fill="#14213D"/>
<path d="M44.148 6.91016V9.25245H48.41V10.82H44.148V14.7954C44.148 15.6704 44.5909 16.1482 45.4103 16.1482H45.6888C46.5084 16.1482 46.9352 15.6704 46.9352 14.7954V14.1352H48.803V14.7954C48.803 16.8908 47.5247 17.782 45.7057 17.782H45.4262C43.5084 17.782 42.0665 16.8908 42.0665 14.7954V10.82H40.7715V9.25245H42.0665V6.91016H44.148Z" fill="#14213D"/>
<path d="M54.7346 9.10352C57.2256 9.10352 59.1272 10.3911 59.1272 13.0134V13.9539H52.0793C52.0793 15.4875 52.9638 16.2301 54.4556 16.2301H54.7346C56.0789 16.2301 56.8489 15.7523 57.095 14.8773H59.0289C58.7836 16.6265 57.3575 17.7816 54.7349 17.7816H54.4558C51.9648 17.7816 50.0796 16.5111 50.0796 13.8878V13.0135C50.0796 10.3913 51.9484 9.10364 54.4558 9.10364L54.7346 9.10352ZM52.0793 12.5347H57.1279C57.0288 11.3143 56.0949 10.6382 54.7346 10.6382H54.4556C53.0295 10.6379 52.1771 11.2982 52.0793 12.5348V12.5347Z" fill="#14213D"/>
<path d="M62.9589 5.4082V17.6159H60.8779V5.4082H62.9589Z" fill="#14213D"/>
<path d="M66.9567 5.4082V17.6159H64.8755V5.4082H66.9567Z" fill="#14213D"/>
<path d="M73.218 9.10364C75.9056 9.10364 77.2179 10.2257 77.2179 12.1231V17.6156H75.1198V16.5603H74.7419C74.0377 17.4184 73.0866 17.7817 71.7264 17.7817C69.9891 17.7817 68.71 16.9889 68.71 15.2407C68.71 13.6069 69.8087 12.6829 72.2669 12.6829H75.1199V12.1229C75.1199 11.0832 74.398 10.6216 73.2013 10.6216H72.9231C71.8082 10.6216 71.0054 11.0671 71.0054 12.1063H68.9401C68.9401 10.2086 70.3162 9.10352 72.9229 9.10352L73.218 9.10364ZM70.7757 15.076C70.7757 15.8016 71.3492 16.1979 72.513 16.1979C73.7584 16.1979 75.1196 15.7183 75.1196 14.2832V13.9539H72.497C71.2835 13.954 70.7759 14.3333 70.7759 15.0756L70.7757 15.076Z" fill="#14213D"/>
<path d="M82.9673 9.10352C85.3276 9.10352 86.8848 10.0438 86.8848 11.8915V12.0571H84.836V11.8754C84.836 10.8523 84.0003 10.5396 82.9673 10.5396H82.6891C81.6239 10.5396 80.902 10.8196 80.902 11.5613C80.902 12.3031 81.591 12.5027 83.3939 12.7334C86.0166 13.0953 86.9999 13.8215 86.9999 15.1905V15.3067C86.9999 16.9066 85.5246 17.7816 83.0171 17.7816H82.7378C80.2468 17.7816 78.7222 16.9066 78.7222 14.9765V14.845H80.7545V15.0097C80.7545 15.9661 81.5085 16.3294 82.738 16.3294H83.0173C84.3615 16.3294 84.9513 15.9993 84.9513 15.339C84.9513 14.6143 84.2793 14.3658 82.3617 14.1185C80.1 13.8385 78.8376 13.2613 78.8376 11.6937V11.5784C78.8376 10.0278 80.3782 9.10352 82.6897 9.10352H82.9673Z" fill="#14213D"/>
<path d="M15.6546 24.9999H13.1407C9.65556 24.9999 6.31316 23.6066 3.84874 21.1265C1.38431 18.6464 -0.00029101 15.2826 -0.000488281 11.7751C-0.000488281 3.28954 5.23776 0 11.6996 0C18.9569 0 24.7455 4.99751 24.84 13.2248V15.755C24.7461 20.1289 22.2258 24.9999 15.6546 24.9999Z" fill="#14213D"/>
<path d="M10.4523 19.1263C8.51173 18.6531 7.39014 17.5987 7.39014 17.5987L8.89109 15.0688C8.89109 15.0688 10.6379 16.5608 12.1043 16.5634C12.7561 16.5634 13.9982 16.501 14.0011 15.2678C14.0011 14.3081 12.6015 13.8726 11.0416 13.0851C9.46842 12.2974 8.54693 11.0608 8.54978 9.68436C8.55202 7.59235 10.111 6.1474 11.8762 5.75774C12.0402 5.50382 12.2767 5.30587 12.5547 5.19004C12.8327 5.07421 13.139 5.04594 13.4333 5.10895C13.6394 5.15279 13.8339 5.24028 14.0038 5.36561C14.1737 5.49095 14.3151 5.65125 14.4187 5.83585C15.3064 6.03438 16.1495 6.39767 16.905 6.90712C16.9102 6.90987 17.4498 7.27818 17.4498 7.27818L15.6976 9.3103C15.6976 9.3103 14.3943 8.39362 13.0401 8.39362C12.2839 8.391 11.7901 8.64902 11.5869 9.07648H11.5841C11.5119 9.23307 11.4755 9.40394 11.4774 9.57656C11.4774 10.3127 12.7195 10.8426 14.2125 11.4878C15.679 12.1141 17.2843 13.3668 17.2815 15.098C17.2769 17.8283 15.4876 19.0213 13.3447 19.2902C13.1924 19.5234 12.9848 19.7148 12.7408 19.8472C12.4967 19.9796 12.2237 20.0489 11.9464 20.0487C11.637 20.049 11.3335 19.9629 11.0698 19.8001C10.806 19.6372 10.5923 19.404 10.4523 19.1263V19.1263Z" fill="white"/>
<path d="M17.4499 7.27862L15.6978 9.31073C15.6978 9.31073 14.3943 8.39406 13.0402 8.39406C12.2839 8.39143 11.7901 8.64946 11.5871 9.07691H11.5845C13.4441 5.12785 16.6861 6.85366 16.905 6.90743C16.9099 6.9103 17.4499 7.27862 17.4499 7.27862Z" fill="url(#paint0_linear_683_23275)"/>
<defs>
<linearGradient id="paint0_linear_683_23275" x1="7.28512" y1="3.48116" x2="10.8295" y2="13.3872" gradientUnits="userSpaceOnUse">
<stop offset="0.141" stop-color="#999999"/>
<stop offset="0.799" stop-color="white"/>
</linearGradient>
</defs>
</svg>
