<svg width="45" height="16" viewBox="0 0 45 16" fill="none" xmlns="http://www.w3.org/2000/svg">
<path d="M3.04125 1.51555L3.04125 1.51554C3.01431 1.39019 2.97108 1.21917 2.9333 1.11069C2.92388 1.0752 2.91319 1.04023 2.90129 1.00584C2.69875 0.420321 2.14414 0 1.49171 0C0.793909 0 0.208012 0.480816 0.0450661 1.13031C0.0156331 1.24763 0 1.37045 0 1.49694C0 1.75123 0.141359 2.16862 0.150388 2.20043L0.435764 3.26041L0.817898 4.82009C1.08594 5.91415 1.35332 7.00837 1.62069 8.10259L1.62101 8.10389C2.10814 10.0974 2.59527 12.091 3.08643 14.0836C3.30965 14.989 3.648 15.8055 4.73271 15.9728C5.84055 16.1436 6.4352 15.4876 6.9417 14.6489L7.02736 14.507C7.49044 13.7396 7.95447 12.9707 8.46842 12.2379C9.42777 10.8699 10.3015 10.8799 11.2489 12.269C11.5665 12.7348 11.8594 13.2173 12.1523 13.6999L12.1523 13.6999C12.3812 14.0771 12.6102 14.4544 12.8511 14.8237C13.2954 15.5052 13.9532 15.7658 14.7543 15.6537C15.5489 15.5425 16.0399 15.0476 16.2273 14.3092L16.379 13.7113C17.3905 9.72493 18.4021 5.73828 19.3543 1.73767C19.628 0.587983 18.6584 -0.218184 17.5121 0.0911591C17.175 0.182163 16.8486 0.315566 16.5232 0.448581L16.5207 0.449587C16.4437 0.481083 16.3666 0.512556 16.2896 0.543429C15.6837 0.78605 15.0811 1.03893 14.4786 1.29181L14.4784 1.29189L14.4781 1.292C13.1245 1.86014 11.7709 2.42824 10.3794 2.8799C8.89792 3.36079 7.32551 3.66257 5.77245 3.79379C4.19901 3.92674 3.50596 3.25933 3.09522 1.747C3.07499 1.67251 3.05817 1.59425 3.04125 1.51555Z" fill="#14213D"/>
<path d="M22.9528 5.33594C22.9075 5.33594 22.8669 5.36485 22.8523 5.40778L21.9926 7.92694C21.9591 8.025 21.8193 8.02203 21.7901 7.92255L21.0526 5.41218C21.0393 5.36697 20.9978 5.33594 20.9506 5.33594H20.1064C20.0342 5.33594 19.983 5.40637 20.0053 5.47495L21.2998 9.46476C21.3139 9.50855 21.3548 9.53831 21.4008 9.53831H22.2742C22.3198 9.53831 22.3603 9.50912 22.3749 9.4659L23.2692 6.81311C23.3017 6.71703 23.4373 6.71646 23.4705 6.81226L24.388 9.46675C24.4029 9.50954 24.4432 9.53831 24.4885 9.53831H25.3362C25.3824 9.53831 25.4234 9.50841 25.4374 9.46434L26.7155 5.47467C26.7374 5.40608 26.6863 5.33594 26.6143 5.33594H25.8217C25.7744 5.33594 25.7327 5.36726 25.7195 5.41274L24.9982 7.919C24.9695 8.01891 24.829 8.02231 24.7954 7.92396L23.9368 5.40778C23.9222 5.36485 23.8817 5.33594 23.8364 5.33594H22.9528Z" fill="#14213D"/>
<path d="M26.8062 8.39987C26.8062 9.0642 27.3497 9.66831 28.2299 9.66831C28.7072 9.66831 29.0532 9.49925 29.2861 9.28824C29.3653 9.2164 29.5302 9.2694 29.5414 9.37568C29.545 9.41068 29.5489 9.44001 29.5525 9.46396C29.5594 9.50917 29.5984 9.53893 29.644 9.53893H30.3697C30.4418 9.53893 30.4484 9.47487 30.4476 9.41082C30.4462 9.28895 30.4476 9.10572 30.4476 8.86581V6.77759C30.4476 5.94052 29.9558 5.20703 28.6614 5.20703C27.6707 5.20703 27.0276 5.79937 26.9058 6.48539C26.8963 6.53853 26.9321 6.58812 26.9847 6.60003L27.6901 6.75973C27.7523 6.77376 27.8123 6.72998 27.8263 6.66777C27.9084 6.3023 28.1939 6.02682 28.6701 6.02682C29.2223 6.02682 29.4639 6.31165 29.4639 6.66536C29.4639 6.81202 29.3949 6.9329 29.1533 6.96748L28.0746 7.13129C27.3584 7.23488 26.8062 7.6491 26.8062 8.39987ZM28.4198 8.8831C28.0229 8.8831 27.8072 8.6242 27.8072 8.3395C27.8072 7.9943 28.0574 7.8217 28.3681 7.76983L29.3419 7.62416C29.4062 7.61466 29.4639 7.6644 29.4639 7.72931V7.79577C29.4639 8.61555 28.9807 8.8831 28.4198 8.8831Z" fill="#14213D"/>
<path d="M32.1203 9.53897C32.179 9.53897 32.2266 9.49136 32.2266 9.43269V4.10628C32.2266 4.04761 32.179 4 32.1203 4H31.3319C31.2732 4 31.2256 4.04761 31.2256 4.10628V9.43269C31.2256 9.49136 31.2732 9.53897 31.3319 9.53897H32.1203Z" fill="#14213D"/>
<path d="M33.9826 9.53897C34.0413 9.53897 34.0889 9.49136 34.0889 9.43269V4.10628C34.0889 4.04761 34.0413 4 33.9826 4H33.1942C33.1355 4 33.0879 4.04761 33.0879 4.10628V9.43269C33.0879 9.49136 33.1355 9.53897 33.1942 9.53897H33.9826Z" fill="#14213D"/>
<path d="M35.674 7.22762C35.6141 7.24365 35.5528 7.20536 35.5488 7.14365C35.5209 6.72362 35.7564 6.24079 36.3137 6.09145C36.9305 5.92618 37.3453 6.20485 37.5178 6.62001C37.5411 6.67555 37.5069 6.73648 37.4488 6.75207L35.674 7.22762ZM38.0517 7.75786C37.9937 7.75522 37.9448 7.7997 37.9369 7.85727C37.8836 8.25007 37.6566 8.59038 37.1201 8.73412C36.5551 8.88552 35.9886 8.61758 35.7655 8.07674C35.7424 8.02086 35.7765 7.95951 35.8348 7.94389L38.6317 7.19447C38.6705 7.18405 38.6956 7.15211 38.69 7.11209C38.6817 7.05328 38.6643 6.96186 38.6376 6.86235C38.2937 5.57882 37.339 4.95012 36.0887 5.28513C35.0635 5.55984 34.3411 6.66462 34.685 7.94828C35.0535 9.32351 36.2432 9.86239 37.3435 9.56758C38.274 9.31825 38.7607 8.62653 38.8266 7.89779C38.8318 7.83961 38.7863 7.79063 38.728 7.7879L38.0517 7.75786Z" fill="#14213D"/>
<path d="M40.5155 4.15706C40.5155 4.09825 40.4681 4.05078 40.4093 4.05078H39.7159C39.6571 4.05078 39.6096 4.09825 39.6096 4.15706V4.68068C39.6096 5.05167 39.4111 5.3365 38.9624 5.3365H38.8529C38.7942 5.3365 38.7466 5.38398 38.7466 5.44279V6.11902C38.7466 6.17769 38.7942 6.2253 38.8529 6.2253H39.417C39.4757 6.2253 39.5233 6.27277 39.5233 6.33158V8.33946C39.5233 9.12466 40.0065 9.5906 40.7831 9.5906C41.0593 9.5906 41.2353 9.5505 41.3301 9.51989C41.3706 9.50699 41.3957 9.46816 41.3957 9.42565V8.79689C41.3957 8.72986 41.3342 8.67856 41.2676 8.68678C41.2023 8.69472 41.1229 8.7018 41.0506 8.7018C40.6795 8.7018 40.5155 8.54649 40.5155 8.1755V6.33158C40.5155 6.27277 40.5631 6.2253 40.6218 6.2253H41.2809C41.3396 6.2253 41.3872 6.17769 41.3872 6.11902V5.44279C41.3872 5.38398 41.3396 5.3365 41.2809 5.3365H40.6218C40.5631 5.3365 40.5155 5.28889 40.5155 5.23022V4.15706Z" fill="#14213D"/>
<path d="M41.7634 8.37564C41.7133 8.38967 41.6801 8.43799 41.6903 8.48901C41.7871 8.96742 42.2676 9.66831 43.4108 9.66831C44.4809 9.66831 44.9987 8.96075 44.9987 8.32221C44.9987 7.70082 44.5844 7.2176 43.7906 7.04499L43.1521 6.91561C42.8931 6.86389 42.7292 6.69993 42.7292 6.47561C42.7292 6.21671 42.9794 5.99238 43.3332 5.99238C43.8087 5.99238 44.0112 6.27141 44.0831 6.50352C44.1021 6.56517 44.165 6.60641 44.2271 6.58883L44.8642 6.40674C44.9162 6.39186 44.9492 6.34042 44.936 6.28799C44.8288 5.86286 44.4237 5.20703 43.3332 5.20703C42.4616 5.20703 41.7885 5.82842 41.7885 6.56177C41.7885 7.13994 42.177 7.62317 42.9189 7.78712L43.5403 7.92529C43.8769 7.9943 44.0322 8.1669 44.0322 8.39123C44.0322 8.65013 43.8164 8.87445 43.4023 8.87445C42.9272 8.87445 42.6494 8.60903 42.5689 8.28367C42.553 8.21933 42.4891 8.17455 42.4252 8.19227L41.7634 8.37564Z" fill="#14213D"/>
<path d="M37.5503 12.2306C37.5503 12.3669 37.6593 12.4759 37.7954 12.4759C37.9318 12.4759 38.0437 12.3669 38.0437 12.2306C38.0437 12.0944 37.9318 11.9824 37.7954 11.9824C37.6593 11.9824 37.5503 12.0944 37.5503 12.2306Z" fill="#14213D"/>
<path d="M38.2217 12.0576C38.2217 12.2907 38.4124 12.5025 38.7212 12.5025C38.8757 12.5025 38.991 12.4521 39.0721 12.386C39.1069 12.3577 39.1791 12.4039 39.1881 12.448C39.1921 12.4668 39.2034 12.4572 39.2226 12.4572H39.4309C39.4757 12.4572 39.5101 12.4161 39.506 12.3716C39.5023 12.3323 39.4992 12.2813 39.4992 12.221V11.4885C39.4992 11.1948 39.3266 10.9375 38.8725 10.9375C38.5392 10.9375 38.318 11.1287 38.2628 11.3567C38.2543 11.3917 38.2785 11.4248 38.3135 11.4328L38.4949 11.4739C38.5363 11.4832 38.576 11.4536 38.59 11.4135C38.6285 11.3038 38.7247 11.225 38.8755 11.225C39.0694 11.225 39.1541 11.3249 39.1541 11.4491C39.1541 11.5005 39.1299 11.5429 39.0452 11.5551L38.6666 11.6126C38.4154 11.6489 38.2217 11.7941 38.2217 12.0576ZM38.7878 12.227C38.6485 12.227 38.5728 12.1362 38.5728 12.0363C38.5728 11.9153 38.6607 11.8548 38.7697 11.8365L39.0882 11.7889C39.1229 11.7836 39.1541 11.8106 39.1541 11.8457C39.1541 12.1332 38.9845 12.227 38.7878 12.227Z" fill="#14213D"/>
<path d="M40.4248 10.5647C40.4371 10.5647 40.4486 10.5652 40.4592 10.5657C40.5063 10.5681 40.5519 10.5331 40.5519 10.4859V10.324C40.5519 10.2972 40.5364 10.273 40.5104 10.2664C40.4752 10.2577 40.4245 10.25 40.3672 10.25C40.0644 10.25 39.8526 10.4498 39.8526 10.7797V10.9116C39.8526 10.9509 39.8208 10.9825 39.7817 10.9825H39.6661C39.627 10.9825 39.5952 11.0142 39.5952 11.0533V11.2174C39.5952 11.2566 39.627 11.2883 39.6661 11.2883H39.7817C39.8208 11.2883 39.8526 11.32 39.8526 11.3592V12.386C39.8526 12.4251 39.8843 12.4568 39.9234 12.4568H40.1358C40.1751 12.4568 40.2067 12.4251 40.2067 12.386V11.3592C40.2067 11.32 40.2384 11.2883 40.2775 11.2883H40.4779C40.5172 11.2883 40.5488 11.2566 40.5488 11.2174V11.0533C40.5488 11.0142 40.5172 10.9825 40.4779 10.9825H40.2775C40.2384 10.9825 40.2067 10.9509 40.2067 10.9116V10.7888C40.2067 10.6072 40.3308 10.5647 40.4248 10.5647Z" fill="#14213D"/>
<path d="M41.538 11.032C41.538 10.9983 41.5141 10.9688 41.4805 10.9663C41.4691 10.9654 41.457 10.9648 41.4441 10.9648C41.3246 10.9648 41.2166 11.0006 41.1351 11.0656C41.1007 11.0931 41.0172 11.0677 41.0172 11.0237C41.0172 11.0013 40.9991 10.983 40.9767 10.983H40.7461C40.7069 10.983 40.6753 11.0147 40.6753 11.0538V12.3865C40.6753 12.4256 40.7069 12.4573 40.7461 12.4573H40.9556C40.9947 12.4573 41.0264 12.4256 41.0264 12.3865V11.755C41.0264 11.4795 41.1504 11.3221 41.4229 11.3221C41.4337 11.3221 41.4446 11.3224 41.4558 11.3229C41.4992 11.3249 41.538 11.292 41.538 11.2485V11.032Z" fill="#14213D"/>
<path d="M41.9592 12.4583C41.9983 12.4583 42.03 12.4266 42.03 12.3875V11.0548C42.03 11.0157 41.9983 10.984 41.9592 10.984H41.7527C41.7136 10.984 41.6819 11.0157 41.6819 11.0548V12.3875C41.6819 12.4266 41.7136 12.4583 41.7527 12.4583H41.9592ZM41.6274 10.4665C41.6274 10.5936 41.7303 10.6935 41.8545 10.6935C41.9816 10.6935 42.0845 10.5936 42.0845 10.4665C42.0845 10.3392 41.9816 10.2363 41.8545 10.2363C41.7303 10.2363 41.6274 10.3392 41.6274 10.4665Z" fill="#14213D"/>
<path d="M42.9706 11.2614C43.1527 11.2614 43.2527 11.3574 43.3018 11.4631C43.3193 11.5012 43.362 11.5243 43.4014 11.51L43.5824 11.4438C43.6166 11.4314 43.6362 11.3948 43.6234 11.3606C43.5432 11.1448 43.33 10.9375 42.9676 10.9375C42.5438 10.9375 42.2139 11.2644 42.2139 11.7185C42.2139 12.1665 42.5438 12.5025 42.9767 12.5025C43.329 12.5025 43.5435 12.2949 43.632 12.0843C43.6465 12.0496 43.627 12.0112 43.5917 11.9983L43.4167 11.9348C43.3783 11.921 43.3365 11.9425 43.3178 11.9788C43.2666 12.0777 43.1619 12.1817 42.9767 12.1817C42.7556 12.1817 42.565 12.0152 42.565 11.7185C42.565 11.4219 42.7556 11.2614 42.9706 11.2614Z" fill="#14213D"/>
<path d="M43.7153 12.0576C43.7153 12.2907 43.9061 12.5025 44.2149 12.5025C44.3693 12.5025 44.4847 12.4521 44.5657 12.386C44.6006 12.3577 44.6727 12.4039 44.6818 12.448C44.6856 12.4668 44.6969 12.4572 44.7162 12.4572H44.9245C44.9693 12.4572 45.0037 12.4161 44.9996 12.3716C44.996 12.3323 44.9928 12.2813 44.9928 12.221V11.4885C44.9928 11.1948 44.8202 10.9375 44.3662 10.9375C44.0328 10.9375 43.8116 11.1287 43.7564 11.3567C43.7479 11.3917 43.772 11.4248 43.8072 11.4328L43.9884 11.4739C44.0299 11.4832 44.0696 11.4536 44.0836 11.4135C44.122 11.3038 44.2184 11.225 44.3692 11.225C44.5629 11.225 44.6476 11.3249 44.6476 11.4491C44.6476 11.5005 44.6235 11.5429 44.5387 11.5551L44.1603 11.6126C43.909 11.6489 43.7153 11.7941 43.7153 12.0576ZM44.2815 12.227C44.1422 12.227 44.0665 12.1362 44.0665 12.0363C44.0665 11.9153 44.1542 11.8548 44.2633 11.8365L44.5819 11.7889C44.6165 11.7836 44.6476 11.8106 44.6476 11.8457C44.6476 12.1332 44.4782 12.227 44.2815 12.227Z" fill="#14213D"/>
</svg>
